<?xml version="1.0" standalone="no"?>
<!DOCTYPE svg PUBLIC "-//W3C//DTD SVG 20010904//EN"
 "http://www.w3.org/TR/2001/REC-SVG-20010904/DTD/svg10.dtd">
<svg version="1.0" xmlns="http://www.w3.org/2000/svg"
 width="5000.000000pt" height="3000.000000pt" viewBox="0 0 5000.000000 3000.000000"
 preserveAspectRatio="xMidYMid meet">

<g transform="translate(0.000000,3000.000000) scale(0.100000,-0.100000)"
fill="#000000" stroke="none">
<path d="M13552 21739 c-151 -25 -308 -101 -405 -195 -107 -103 -142 -154
-156 -221 -6 -32 -23 -78 -37 -103 -76 -133 7 -211 226 -213 163 -1 342 65
443 165 63 63 74 68 149 68 106 0 158 -49 158 -150 0 -47 2 -50 25 -50 38 0
75 -42 75 -83 0 -54 -20 -97 -54 -118 -28 -17 -29 -19 -8 -19 56 0 107 48 133
125 7 22 21 49 30 60 41 49 53 89 58 195 8 175 6 213 -14 254 -20 42 -80 91
-130 105 -18 5 -53 31 -80 60 -99 105 -245 148 -413 120z"/>
<path d="M29690 20739 c-224 -39 -420 -249 -524 -562 -58 -173 -122 -283 -213
-369 -83 -77 -106 -85 -298 -98 -188 -13 -288 -28 -444 -66 -498 -123 -850
-436 -988 -879 -26 -84 -28 -101 -28 -270 0 -241 31 -376 112 -482 33 -43 107
-93 139 -93 24 0 23 -6 39 168 18 187 122 375 259 466 49 33 106 61 106 52 0
-2 -14 -21 -31 -42 -78 -98 -115 -226 -105 -358 4 -43 13 -93 20 -111 13 -31
63 -76 99 -88 33 -12 95 24 158 91 81 86 150 193 258 400 118 227 173 305 316
447 210 210 432 336 720 410 l90 23 7 208 c4 115 5 275 2 356 -7 210 4 229
164 289 142 52 345 53 474 2 l36 -15 7 -86 8 -86 21 30 c11 16 44 55 73 86 99
108 124 203 83 311 -25 66 -110 164 -174 202 -97 56 -270 85 -386 64z"/>
<path d="M30400 18394 c-41 -71 -132 -235 -205 -364 -72 -129 -196 -349 -275
-487 l-143 -253 -364 0 -363 0 0 -60 0 -60 413 0 c226 0 793 3 1259 7 l846 6
81 181 c44 100 176 398 294 664 l214 482 -782 0 c-430 0 -809 3 -842 6 l-60 7
-73 -129z"/>
<path d="M15310 17984 c-14 -2 -68 -11 -120 -20 -282 -45 -548 -135 -1120
-381 l-245 -106 -55 21 c-30 11 -115 43 -189 71 -623 238 -1253 381 -1696 384
-137 0 -157 -2 -230 -26 -100 -33 -183 -82 -212 -126 -34 -51 -32 -130 6 -196
51 -89 193 -215 305 -272 143 -73 534 -207 826 -283 91 -24 167 -45 169 -47 3
-2 -4 -10 -15 -18 -10 -8 -14 -15 -8 -15 7 0 1 -20 -12 -47 -27 -52 -31 -119
-13 -204 l11 -52 132 7 c177 10 210 13 396 31 25 2 72 7 105 10 139 13 163 16
225 25 36 5 117 17 180 25 l115 16 230 -35 c183 -28 501 -70 756 -99 27 -3 27
-3 27 72 1 42 10 111 21 155 12 44 21 80 21 81 0 2 -13 8 -30 15 -16 7 -30 15
-30 19 0 3 39 17 88 30 256 70 751 245 893 316 115 58 219 148 258 222 22 42
30 116 19 168 -19 93 -142 184 -318 236 -64 18 -105 22 -270 24 -107 2 -206 1
-220 -1z"/>
<path d="M11764 17066 c-11 -8 -34 -43 -50 -78 -24 -53 -29 -76 -29 -143 0
-89 15 -131 66 -182 19 -20 42 -32 67 -35 44 -6 301 5 530 23 144 11 160 14
142 26 -57 40 -66 138 -22 227 l29 56 -69 21 c-152 45 -478 99 -598 99 -25 0
-55 -6 -66 -14z m275 -135 c14 -9 13 -20 -5 -173 -6 -47 -7 -48 -41 -48 l-35
0 6 43 c3 23 8 75 12 115 6 65 9 72 28 72 11 0 27 -4 35 -9z m165 -53 c-3 -24
-9 -74 -12 -113 l-7 -70 -35 0 c-40 0 -38 -9 -26 128 l8 97 39 0 39 0 -6 -42z
m112 24 c7 -5 7 -38 0 -112 l-11 -105 -34 -3 -34 -3 7 93 c10 124 14 138 40
138 11 0 26 -4 32 -8z"/>
<path d="M15600 17029 c-69 -10 -210 -35 -315 -55 -104 -20 -198 -36 -207 -37
-15 -1 -15 -3 -3 -17 25 -28 45 -88 45 -137 0 -54 -29 -112 -57 -114 -10 -1
20 -9 67 -19 144 -32 347 -52 537 -53 179 -2 182 -2 207 22 41 38 61 105 61
201 0 75 -3 91 -27 131 -15 26 -42 59 -59 73 -37 32 -70 32 -249 5z m-230
-194 l0 -115 -35 0 -35 0 0 115 0 115 35 0 35 0 0 -115z m120 0 l0 -115 -35 0
-35 0 0 115 0 115 35 0 35 0 0 -115z m160 0 l0 -115 -35 0 -35 0 0 115 0 115
35 0 35 0 0 -115z"/>
<path d="M19455 16884 c-383 -30 -741 -143 -1045 -328 -287 -175 -542 -428
-717 -709 -72 -116 -160 -302 -207 -435 l-36 -103 0 -368 c0 -400 -9 -616 -40
-926 -81 -812 -267 -1524 -564 -2165 -137 -296 -295 -556 -530 -875 -146 -199
-244 -361 -310 -515 -15 -36 -31 -74 -36 -85 -12 -26 -61 -159 -60 -163 0 -1
-7 -27 -16 -58 -9 -31 -17 -62 -18 -68 -1 -6 -5 -20 -9 -31 -3 -11 -8 -36 -11
-55 -3 -19 -8 -46 -11 -60 -3 -14 -8 -47 -11 -75 -3 -27 -10 -68 -15 -90 -4
-22 -7 -146 -5 -275 2 -187 7 -259 25 -355 86 -480 288 -867 618 -1185 119
-115 142 -133 413 -330 102 -74 190 -139 197 -145 7 -5 52 -38 100 -73 48 -34
509 -369 1023 -742 514 -374 1133 -824 1375 -1000 242 -176 445 -323 450 -328
85 -69 1031 -746 1093 -783 131 -77 314 -163 442 -207 700 -239 1479 -142
2080 261 69 46 1806 1305 1840 1334 8 7 45 34 81 60 37 27 151 109 253 183
1725 1251 2193 1593 2265 1654 254 216 438 452 572 731 142 297 208 599 209
952 0 276 -36 504 -119 752 -78 234 -155 383 -346 671 -68 102 -151 235 -185
295 -333 595 -590 1378 -772 2349 -33 173 -47 230 -58 231 -8 2 -60 16 -115
33 -232 70 -433 183 -590 332 l-50 48 -80 -10 c-106 -13 -415 -3 -539 16 -430
68 -794 245 -1071 521 -266 265 -405 584 -405 930 0 444 240 863 653 1138 l68
45 -87 7 c-161 14 -427 -12 -634 -61 -58 -13 -197 -55 -310 -93 -454 -153
-822 -237 -1280 -292 -163 -20 -233 -23 -585 -24 -410 0 -508 6 -790 46 -355
51 -688 131 -1106 268 -365 118 -517 148 -794 155 -82 2 -172 2 -200 0z m6490
-3635 c503 -61 872 -502 842 -1003 -9 -138 -37 -241 -102 -371 -59 -118 -139
-223 -226 -297 -71 -60 -4994 -3450 -5074 -3494 -300 -165 -688 -146 -974 46
-71 49 -243 216 -983 957 -965 967 -962 964 -1028 1134 -52 136 -64 200 -64
354 0 111 4 158 22 229 83 331 333 590 668 692 81 25 104 28 254 28 183 1 240
-9 382 -69 152 -64 198 -103 673 -575 368 -365 461 -452 510 -477 171 -89 362
-91 528 -6 28 13 932 633 2010 1375 1447 997 1985 1362 2052 1394 169 80 326
105 510 83z"/>
<path d="M37960 14139 c-84 -16 -208 -86 -279 -158 -144 -145 -221 -353 -221
-596 0 -110 14 -179 65 -329 45 -133 59 -246 53 -431 -5 -139 2 -205 22 -205
4 0 38 13 76 28 38 16 99 37 136 47 64 17 68 20 78 54 6 20 13 90 17 157 l6
121 -40 54 c-23 30 -52 77 -66 104 -35 70 -77 207 -83 274 l-6 56 68 44 c90
58 265 234 339 340 57 82 59 83 93 77 74 -12 145 -85 223 -231 23 -44 60 -96
81 -116 52 -50 50 -86 -11 -154 -15 -16 -38 -64 -50 -105 -28 -91 -81 -197
-130 -265 -35 -49 -36 -51 -36 -145 0 -88 3 -101 33 -163 39 -78 75 -109 197
-168 136 -65 256 -86 304 -53 38 27 24 77 -47 176 -113 157 -154 270 -172 469
-9 107 -3 147 33 234 43 102 67 208 67 298 0 141 -44 240 -140 316 -28 22 -66
62 -83 87 -33 49 -44 56 -207 132 -125 59 -209 72 -320 51z"/>
<path d="M32877 11835 c-281 -77 -448 -383 -355 -651 47 -134 128 -230 252
-295 l63 -34 -128 -430 c-71 -236 -129 -431 -129 -432 0 -2 192 -3 426 -3
l426 0 -5 23 c-4 12 -60 203 -127 425 -66 221 -120 406 -120 411 0 5 26 21 58
37 33 16 84 55 123 93 213 213 208 535 -12 736 -103 93 -213 136 -349 134 -41
0 -97 -7 -123 -14z"/>
<path d="M38750 5015 c-36 -39 -38 -123 -6 -255 15 -60 26 -134 26 -172 0 -63
2 -68 24 -74 13 -3 35 -4 47 -2 23 3 24 6 27 112 l3 109 81 -82 c44 -46 101
-96 126 -112 l46 -29 298 0 298 0 0 23 c0 98 -194 202 -405 217 -61 4 -120 15
-152 27 -76 30 -186 107 -272 190 -45 43 -85 73 -97 73 -11 0 -31 -11 -44 -25z"/>
<path d="M37570 4973 c0 -6 10 -32 21 -59 19 -41 21 -60 16 -136 -4 -66 -12
-99 -29 -130 -36 -64 -68 -83 -143 -83 -75 0 -109 20 -140 81 -28 56 -33 195
-10 264 19 57 17 69 -8 42 -33 -36 -52 -140 -52 -277 0 -119 2 -135 26 -185
14 -30 39 -70 54 -88 42 -50 131 -113 168 -119 29 -4 38 1 85 51 93 98 129
221 112 379 -12 104 -48 222 -76 248 -13 13 -24 18 -24 12z"/>
</g>
</svg>
