<?xml version="1.0" standalone="no"?>
<!DOCTYPE svg PUBLIC "-//W3C//DTD SVG 20010904//EN"
 "http://www.w3.org/TR/2001/REC-SVG-20010904/DTD/svg10.dtd">
<svg version="1.0" xmlns="http://www.w3.org/2000/svg"
 width="512.000000pt" height="512.000000pt" viewBox="0 0 512.000000 512.000000"
 preserveAspectRatio="xMidYMid meet">

<g transform="translate(0.000000,512.000000) scale(0.100000,-0.100000)"
fill="#000000" stroke="none">
<path d="M753 4688 c-354 -353 -435 -439 -443 -470 -7 -24 -9 -576 -8 -1585 3
-1702 -2 -1575 63 -1651 43 -51 98 -75 188 -80 l77 -5 0 -38 c0 -111 45 -197
127 -246 l48 -28 876 -3 876 -3 6 -89 c14 -195 94 -330 250 -424 110 -65 118
-66 876 -66 458 0 697 4 733 11 209 44 366 219 388 435 13 118 13 1255 0 1363
-24 206 -168 374 -365 426 -48 12 -129 15 -422 15 l-363 0 0 1200 0 1200 65 0
c57 0 69 -3 90 -25 l25 -24 0 -1051 0 -1051 25 -24 c31 -32 69 -32 100 0 l25
24 0 1052 c0 800 -3 1062 -12 1093 -16 54 -90 128 -144 144 -23 6 -71 12 -108
12 l-66 0 0 61 c0 118 -43 193 -134 235 l-51 24 -961 0 c-957 0 -961 0 -988
-21 -33 -26 -36 -77 -5 -105 20 -18 55 -19 986 -24 l965 -5 19 -24 c18 -23 19
-59 19 -1357 l0 -1334 -258 0 c-196 0 -271 -4 -315 -15 -161 -42 -289 -159
-349 -321 -21 -56 -22 -76 -26 -462 l-3 -402 -1031 2 -1030 3 -19 24 c-19 23
-19 61 -19 1537 l0 1514 316 0 c211 0 330 4 355 12 51 15 114 69 142 122 21
40 22 51 25 406 2 200 1 374 -3 387 -9 36 -41 63 -77 63 -28 0 -77 -45 -465
-432z m397 -78 c0 -256 -6 -297 -48 -319 -13 -7 -113 -11 -279 -11 l-258 0
285 285 c157 157 288 285 292 285 5 0 8 -108 8 -240z m2596 -2883 c32 -18 424
-508 426 -532 3 -48 -5 -72 -32 -97 -29 -27 -35 -28 -130 -28 -90 0 -101 -2
-127 -24 l-28 -24 -3 -256 -3 -256 -162 2 -162 3 -3 257 -2 257 -27 20 c-22
18 -40 21 -120 21 -63 0 -103 5 -122 15 -35 18 -55 63 -46 104 8 36 381 506
423 533 31 21 87 23 118 5z m-1186 -912 l0 -85 -850 0 c-937 0 -897 -3 -919
61 -6 18 -11 49 -11 70 l0 39 890 0 890 0 0 -85z"/>
<path d="M1690 4669 c-35 -11 -93 -49 -118 -79 -78 -92 -63 -263 30 -333 74
-57 74 -57 501 -57 456 0 459 0 531 81 108 120 75 294 -69 372 -39 21 -51 22
-440 24 -248 1 -413 -2 -435 -8z m799 -150 c63 -22 77 -107 24 -149 -25 -19
-40 -20 -400 -20 -382 0 -401 2 -430 39 -29 38 -6 112 41 131 32 13 727 12
765 -1z"/>
<path d="M891 3684 c-12 -15 -21 -33 -21 -40 0 -29 25 -64 53 -74 43 -15 2082
-14 2126 1 54 19 69 79 28 117 l-23 22 -1071 0 -1072 0 -20 -26z"/>
<path d="M895 3245 c-14 -13 -25 -36 -25 -50 0 -14 11 -37 25 -50 l24 -25
1066 0 1066 0 24 25 c14 13 25 36 25 50 0 14 -11 37 -25 50 l-24 25 -1066 0
-1066 0 -24 -25z"/>
<path d="M891 2794 c-27 -35 -26 -57 3 -91 l24 -28 669 -3 c367 -2 683 0 701
3 65 12 93 78 52 123 l-21 22 -704 0 -704 0 -20 -26z"/>
<path d="M2581 2794 c-27 -35 -26 -57 3 -91 l24 -28 194 -3 c106 -2 208 -1
226 3 65 12 93 79 52 123 -20 21 -27 22 -250 22 l-229 0 -20 -26z"/>
<path d="M895 2355 c-14 -13 -25 -36 -25 -50 0 -14 11 -37 25 -50 l24 -25 479
0 c454 0 481 1 503 19 17 13 23 29 23 56 0 27 -6 43 -23 56 -22 18 -49 19
-503 19 l-479 0 -24 -25z"/>
<path d="M924 1930 c-26 -10 -54 -48 -54 -71 0 -9 9 -28 21 -43 l20 -26 489 0
489 0 20 26 c27 35 26 57 -3 91 l-24 28 -469 2 c-257 1 -478 -2 -489 -7z"/>
</g>
</svg>
