<?xml version="1.0" standalone="no"?>
<!DOCTYPE svg PUBLIC "-//W3C//DTD SVG 20010904//EN"
 "http://www.w3.org/TR/2001/REC-SVG-20010904/DTD/svg10.dtd">
<svg version="1.0" xmlns="http://www.w3.org/2000/svg"
 width="64.000000pt" height="64.000000pt" viewBox="0 0 64.000000 64.000000"
 preserveAspectRatio="xMidYMid meet">

<g transform="translate(0.000000,64.000000) scale(0.100000,-0.100000)"
fill="#000000" stroke="none">
<path d="M0 320 l0 -320 57 0 c54 0 55 1 40 18 -15 16 -17 45 -17 200 l0 182
25 0 c22 0 25 5 25 33 0 84 44 156 115 188 l40 19 -142 0 -143 0 0 -320z"/>
<path d="M395 621 c71 -32 115 -104 115 -188 0 -28 3 -33 25 -33 l25 0 0 -182
c0 -155 -2 -184 -17 -200 -15 -17 -14 -18 40 -18 l57 0 0 320 0 320 -142 0
-143 0 40 -19z"/>
<path d="M264 541 c-33 -20 -54 -64 -54 -112 l0 -29 110 0 110 0 0 30 c0 48
-25 97 -59 114 -40 21 -69 20 -107 -3z"/>
<path d="M282 278 c-14 -14 -16 -64 -2 -73 5 -3 7 -25 3 -50 l-6 -45 43 0 43
0 -6 45 c-4 25 -2 47 3 50 14 9 12 59 -2 73 -7 7 -24 12 -38 12 -14 0 -31 -5
-38 -12z"/>
</g>
</svg>
