<svg xmlns="http://www.w3.org/2000/svg" xmlns:xlink="http://www.w3.org/1999/xlink" viewBox="0 0 684.39 638.5"><defs><style>.cls-1{fill:#1e96ba;}.cls-2{fill:#70d9f2;}.cls-3{fill:url(#radial-gradient);}.cls-4{fill:url(#radial-gradient-2);}.cls-5{fill:url(#radial-gradient-3);}.cls-6{fill:url(#radial-gradient-4);}.cls-7{fill:url(#radial-gradient-5);}.cls-8{fill:url(#radial-gradient-6);}.cls-9{fill:url(#radial-gradient-7);}.cls-10{fill:url(#radial-gradient-8);}.cls-11{fill:url(#radial-gradient-9);}.cls-12{fill:url(#radial-gradient-10);}.cls-13{fill:url(#radial-gradient-11);}.cls-14{fill:url(#radial-gradient-12);}.cls-15{fill:url(#radial-gradient-13);}.cls-16{fill:url(#radial-gradient-14);}.cls-17{fill:url(#radial-gradient-15);}.cls-18{fill:url(#radial-gradient-16);}.cls-19{fill:url(#radial-gradient-17);}.cls-20{fill:url(#radial-gradient-18);}.cls-21{fill:url(#radial-gradient-19);}.cls-22{fill:url(#radial-gradient-20);}.cls-23{fill:url(#radial-gradient-21);}.cls-24{fill:url(#radial-gradient-22);}.cls-25{fill:url(#radial-gradient-23);}.cls-26{fill:url(#radial-gradient-24);}.cls-27{fill:url(#radial-gradient-25);}.cls-28{fill:url(#radial-gradient-26);}.cls-29{fill:url(#radial-gradient-27);}.cls-30{fill:url(#radial-gradient-28);}.cls-31{fill:url(#radial-gradient-29);}.cls-32{fill:url(#radial-gradient-30);}.cls-33{fill:url(#radial-gradient-31);}.cls-34{fill:url(#radial-gradient-32);}.cls-35{fill:url(#radial-gradient-33);}.cls-36{fill:url(#radial-gradient-34);}.cls-37{fill:url(#radial-gradient-35);}.cls-38{fill:url(#radial-gradient-36);}.cls-39{fill:url(#radial-gradient-37);}.cls-40{fill:url(#radial-gradient-38);}.cls-41{fill:url(#radial-gradient-39);}.cls-42{fill:url(#radial-gradient-40);}.cls-43{fill:url(#radial-gradient-41);}</style><radialGradient id="radial-gradient" cx="1532.69" cy="-1239.6" r="538.49" gradientTransform="translate(2073.07 -1126.09) rotate(180)" gradientUnits="userSpaceOnUse"><stop offset="0" stop-color="#ffffff16"/><stop offset="1" stop-color="#0012"/></radialGradient><radialGradient id="radial-gradient-2" cx="1532.7" cy="-1239.59" r="538.49" xlink:href="#radial-gradient"/><radialGradient id="radial-gradient-3" cx="1532.68" cy="-1239.6" r="538.52" xlink:href="#radial-gradient"/><radialGradient id="radial-gradient-4" cx="1532.7" cy="-1239.6" r="538.48" xlink:href="#radial-gradient"/><radialGradient id="radial-gradient-5" cx="1532.7" cy="-1239.6" r="538.47" xlink:href="#radial-gradient"/><radialGradient id="radial-gradient-6" cx="1532.7" cy="-1239.6" r="538.48" xlink:href="#radial-gradient"/><radialGradient id="radial-gradient-7" cx="1532.68" cy="-1239.6" r="538.51" xlink:href="#radial-gradient"/><radialGradient id="radial-gradient-8" cx="1532.71" cy="-1239.6" r="538.44" xlink:href="#radial-gradient"/><radialGradient id="radial-gradient-9" cx="1532.69" cy="-1239.61" r="538.44" xlink:href="#radial-gradient"/><radialGradient id="radial-gradient-10" cx="1532.7" cy="-1239.6" r="538.49" xlink:href="#radial-gradient"/><radialGradient id="radial-gradient-11" cx="1532.69" cy="-1239.59" r="538.48" xlink:href="#radial-gradient"/><radialGradient id="radial-gradient-12" cx="1532.69" cy="-1239.6" r="538.5" xlink:href="#radial-gradient"/><radialGradient id="radial-gradient-13" cx="1532.67" cy="-1239.61" r="538.56" xlink:href="#radial-gradient"/><radialGradient id="radial-gradient-14" cx="1532.69" cy="-1239.6" r="538.42" xlink:href="#radial-gradient"/><radialGradient id="radial-gradient-15" cx="1532.7" cy="-1239.6" r="538.48" xlink:href="#radial-gradient"/><radialGradient id="radial-gradient-16" cx="1532.69" cy="-1239.6" r="538.48" xlink:href="#radial-gradient"/><radialGradient id="radial-gradient-17" cx="1532.7" cy="-1239.6" r="538.48" xlink:href="#radial-gradient"/><radialGradient id="radial-gradient-18" cx="1532.7" cy="-1239.62" r="538.45" xlink:href="#radial-gradient"/><radialGradient id="radial-gradient-19" cx="1532.7" cy="-1239.6" r="538.46" xlink:href="#radial-gradient"/><radialGradient id="radial-gradient-20" cx="1532.7" cy="-1239.6" r="538.48" xlink:href="#radial-gradient"/><radialGradient id="radial-gradient-21" cx="1532.69" cy="-1239.59" r="538.53" xlink:href="#radial-gradient"/><radialGradient id="radial-gradient-22" cx="1532.7" cy="-1239.59" r="538.49" xlink:href="#radial-gradient"/><radialGradient id="radial-gradient-23" cx="1532.7" cy="-1239.59" r="538.49" xlink:href="#radial-gradient"/><radialGradient id="radial-gradient-24" cx="1532.7" cy="-1239.58" r="538.51" xlink:href="#radial-gradient"/><radialGradient id="radial-gradient-25" cx="1532.7" cy="-1239.6" r="538.48" xlink:href="#radial-gradient"/><radialGradient id="radial-gradient-26" cx="1532.7" cy="-1239.6" r="538.5" xlink:href="#radial-gradient"/><radialGradient id="radial-gradient-27" cx="1532.71" cy="-1239.61" r="538.43" xlink:href="#radial-gradient"/><radialGradient id="radial-gradient-28" cx="1532.7" cy="-1239.6" r="538.47" xlink:href="#radial-gradient"/><radialGradient id="radial-gradient-29" cx="1532.7" cy="-1239.6" r="538.48" xlink:href="#radial-gradient"/><radialGradient id="radial-gradient-30" cx="1532.7" cy="-1239.6" r="538.47" xlink:href="#radial-gradient"/><radialGradient id="radial-gradient-31" cx="1532.7" cy="-1239.6" r="538.48" xlink:href="#radial-gradient"/><radialGradient id="radial-gradient-32" cx="1532.69" cy="-1239.6" r="538.49" xlink:href="#radial-gradient"/><radialGradient id="radial-gradient-33" cx="1532.69" cy="-1239.6" r="538.49" xlink:href="#radial-gradient"/><radialGradient id="radial-gradient-34" cx="1532.69" cy="-1239.59" r="538.46" xlink:href="#radial-gradient"/><radialGradient id="radial-gradient-35" cx="1532.69" cy="-1239.6" r="538.5" xlink:href="#radial-gradient"/><radialGradient id="radial-gradient-36" cx="1532.7" cy="-1239.6" r="538.48" xlink:href="#radial-gradient"/><radialGradient id="radial-gradient-37" cx="1532.7" cy="-1239.6" r="538.48" xlink:href="#radial-gradient"/><radialGradient id="radial-gradient-38" cx="1532.7" cy="-1239.6" r="538.47" xlink:href="#radial-gradient"/><radialGradient id="radial-gradient-39" cx="1532.7" cy="-1239.6" r="538.48" xlink:href="#radial-gradient"/><radialGradient id="radial-gradient-40" cx="1532.69" cy="-1239.6" r="538.49" xlink:href="#radial-gradient"/><radialGradient id="radial-gradient-41" cx="1532.7" cy="-1239.59" r="538.49" xlink:href="#radial-gradient"/></defs><g id="Capa_2" data-name="Capa 2"><g id="Artboard_2" data-name="Artboard 2"><path class="cls-1" d="M649.45,301.81a4.15,4.15,0,1,1,4.15,4.09A4.11,4.11,0,0,1,649.45,301.81Z"/><polygon class="cls-2" points="641.95 114.24 632.9 119.47 623.86 124.69 623.86 114.24 623.86 103.78 632.9 109 641.95 114.24"/><path class="cls-1" d="M538.12,15.47a4.15,4.15,0,1,1,4.15,4.09A4.12,4.12,0,0,1,538.12,15.47Z"/><path class="cls-3" d="M262.5,97.79a17.64,17.64,0,1,0-17.88-17.63A17.78,17.78,0,0,0,262.5,97.79Zm0-34.25a16.62,16.62,0,1,1-16.85,16.62A16.76,16.76,0,0,1,262.5,63.54Z"/><path class="cls-4" d="M606.72,235.45a14,14,0,1,0-14,13.78A13.9,13.9,0,0,0,606.72,235.45Zm-25.37,0a11.4,11.4,0,1,1,11.4,11.24A11.34,11.34,0,0,1,581.35,235.45Z"/><path class="cls-5" d="M215.77,94.9a6.17,6.17,0,1,0,6.26,6.17A6.2,6.2,0,0,0,215.77,94.9Z"/><path class="cls-6" d="M87.28,63.93a6.23,6.23,0,0,0,6.26-6.18,6.43,6.43,0,0,0-.15-1.32h94l19.09,22.46H170.89a4.08,4.08,0,1,0,0,2.54h65.32a26.34,26.34,0,0,0,52.58,0H317l33.3,32.85h58.53a6.28,6.28,0,0,0,12.25,0h27l-23.58,23.26H351.89a4.1,4.1,0,1,0,0,2.54h73.62l26.16-25.8h21.95a66.79,66.79,0,0,0,11.69,36.49l0,0-25,24.62,1.8,1.78-32.49-18.51-32.89,18.73v37.47l32.89,18.73,32.89-18.73V177.35l-.37-.21,24.65-24.31A68.82,68.82,0,0,0,541,180.71v12.34l-21.3,12.13v9.41l-18.83,18.58V201.81l7.78-7.68-1.82-1.8-8.54,8.42v35l-18.21,18v45.38l-15.38,15.17a4.19,4.19,0,0,0-1.87-.45,4.1,4.1,0,1,0,4.15,4.09,4,4,0,0,0-.46-1.84l16.13-15.92V254.74l37-36.55v11.46l-30,29.56v73.54h2.58V260.26l28.89-28.5L541,243v26.23l29.79,29.38V326.7a6.16,6.16,0,0,0,0,12.08v30.9a4.16,4.16,0,1,0,2.57,0v-30.9a6.15,6.15,0,0,0,0-12.07V297.59l-29.78-29.37V243.05l21.3-12.14V205.18l-14.1-8v-26a59.78,59.78,0,0,0,32-15.14l11,10.86h46.3a4.09,4.09,0,1,0,.23-2.54H594.87l-10.22-10.09a58.09,58.09,0,0,0,0-82.54l4.6-4.53A64.55,64.55,0,0,1,608.36,113h2.57a67.07,67.07,0,0,0-19.86-47.6l57-56.24a4.14,4.14,0,0,0,6-3.64,4.16,4.16,0,0,0-8.31,0,4,4,0,0,0,.47,1.85l-57,56.27a68.91,68.91,0,0,0-46.94-18.37v2.54a66.3,66.3,0,0,1,45.12,17.63L582.8,70a60,60,0,0,0-81.71.62L480,49.75H443.69L398.77,5.44A4,4,0,0,0,399,4.1a4.15,4.15,0,0,0-8.3,0,4.13,4.13,0,0,0,4.15,4.1,4.26,4.26,0,0,0,2.34-.72l42.85,42.27H429.59L384.74,5.51A4.15,4.15,0,0,0,385,4.1a4.15,4.15,0,0,0-8.3,0,4.14,4.14,0,0,0,4.16,4.1,4.24,4.24,0,0,0,2.28-.68L426,49.75H373.52a4.1,4.1,0,1,0,0,2.54h55l.19.19.19-.19h13.73l.18.19.19-.19h35.91l20.36,20.1A58.12,58.12,0,0,0,482.69,113c0,32,26,58.07,58.29,58.75v6.41c-35.84-.68-64.8-29.64-64.79-65.16v-1.27H421a6.28,6.28,0,0,0-12.25,0H351.32L318,78.89H288.79a26.34,26.34,0,0,0-52.58,0H209.8l-21.26-25H92.16a6.28,6.28,0,0,0-4.88-2.31,6.18,6.18,0,1,0,0,12.35ZM459.93,213.35l-30.31,17.27-30.31-17.27V178.82l30.31-17.26,30.32,17.26Zm102.35,16.1-20,11.39-20-11.39V206.64l20-11.39,20,11.39Zm-14.1-33.77-4.62-2.63V171.76c1.56,0,3.1-.11,4.62-.26Zm-4.62-83.2L508.91,78.3a48.71,48.71,0,0,1,33.36-13.16c26.76,0,48.52,21.47,48.52,47.87,0,26-21.07,47.16-47.23,47.84ZM541,113.54v47.31c-26.16-.68-47.23-21.87-47.23-47.84A47.32,47.32,0,0,1,507.09,80.1Zm1.29-56.77c31.44,0,57,25.23,57,56.24,0,30.59-24.88,55.53-55.72,56.21v-7.35c26.73-.68,48.26-22.33,48.26-48.86,0-27-22.22-48.89-49.55-48.89a49.72,49.72,0,0,0-34.09,13.46l-5.27-5.2A57.21,57.21,0,0,1,542.27,56.77Zm-57,56.24a55.64,55.64,0,0,1,15.83-38.83l5.27,5.2A48.37,48.37,0,0,0,492.72,113c0,26.53,21.53,48.18,48.26,48.86v7.35C510.14,168.54,485.26,143.59,485.26,113ZM262.5,56.73a23.43,23.43,0,1,1-23.75,23.43A23.62,23.62,0,0,1,262.5,56.73Z"/><path class="cls-7" d="M524.42,296.57a6.18,6.18,0,1,0-6.26-6.17A6.22,6.22,0,0,0,524.42,296.57Z"/><path class="cls-8" d="M524.42,277.63a6.17,6.17,0,1,0-6.26-6.17A6.22,6.22,0,0,0,524.42,277.63Z"/><path class="cls-9" d="M382.82,199.62a6.18,6.18,0,1,0,6.26,6.17A6.23,6.23,0,0,0,382.82,199.62Z"/><path class="cls-10" d="M382.82,193a6.17,6.17,0,1,0-6.25-6.17A6.21,6.21,0,0,0,382.82,193Z"/><path class="cls-11" d="M596.9,235.45a4.15,4.15,0,1,0-4.15,4.09A4.12,4.12,0,0,0,596.9,235.45Z"/><path class="cls-12" d="M542.27,29.25a13.89,13.89,0,0,0,14-13.78,14,14,0,0,0-27.94,0A13.89,13.89,0,0,0,542.27,29.25Zm0-25a11.34,11.34,0,0,1,11.4,11.25,11.4,11.4,0,0,1-22.8,0A11.35,11.35,0,0,1,542.27,4.22Z"/><path class="cls-13" d="M639.63,301.81a14,14,0,1,0,14-13.78A13.89,13.89,0,0,0,639.63,301.81Zm14-11.24a11.24,11.24,0,1,1-11.4,11.24A11.33,11.33,0,0,1,653.6,290.57Z"/><path class="cls-14" d="M329.84,40.35a13.78,13.78,0,1,0-14-13.78A13.89,13.89,0,0,0,329.84,40.35Zm0-25a11.25,11.25,0,1,1-11.4,11.25A11.35,11.35,0,0,1,329.84,15.32Z"/><path class="cls-15" d="M329.85,30.67a4.1,4.1,0,1,0-4.16-4.1A4.13,4.13,0,0,0,329.85,30.67Z"/><path class="cls-16" d="M592.75,197.25a4.1,4.1,0,1,0,4.15,4.1A4.12,4.12,0,0,0,592.75,197.25Z"/><path class="cls-17" d="M316.67,66a4.17,4.17,0,0,0,1.87-.46l37.35,36.85H474V99.8H425.35L403.94,78.68h-38.5v2.55h37.44L421.71,99.8H357l-36.6-36.11a3.93,3.93,0,0,0,.47-1.84,4.16,4.16,0,1,0-4.16,4.1Z"/><path class="cls-18" d="M668.45,373.56a4.21,4.21,0,0,0-1.74.38l-49.86-49.19-1.82,1.8,49.8,49.13a4,4,0,0,0-.54,2,4.16,4.16,0,1,0,4.16-4.1Z"/><path class="cls-19" d="M617.08,438.28V393.06l-33-32.5V291.88l-33.2-32.76-1.82,1.8,32.45,32V461.42l-21.3,12.13v25.73l21.3,12.13v114.4h2.57V511.42l6.78-3.86v65.21a4.15,4.15,0,1,0,2.58,0V506.09l12-6.81V473.55l-21.3-12.13V364.15l30.37,30v44.26a4.17,4.17,0,1,0,2.58-.09Zm-14.22,59.54-11.39,6.49h-.56v.31l-8.06,4.6-20-11.4V475l20-11.4,20,11.4Z"/><polygon class="cls-20" points="561.99 412.98 565.52 419.32 569.33 413.13 573.13 406.95 565.8 406.79 558.46 406.63 561.99 412.98"/><polygon class="cls-2" points="189.36 100.8 195.63 104.55 201.9 108.3 202.06 101.07 202.22 93.84 195.79 97.31 189.36 100.8"/><polygon class="cls-21" points="395.31 239.27 401.59 243.02 407.86 246.78 408.02 239.54 408.18 232.31 401.75 235.79 395.31 239.27"/><polygon class="cls-22" points="638.03 224.12 637.87 231.35 637.71 238.59 644.14 235.1 650.57 231.62 644.3 227.87 638.03 224.12"/><polygon class="cls-23" points="485.96 189.99 489.77 183.8 493.58 177.61 486.24 177.45 478.91 177.29 482.44 183.64 485.96 189.99"/><polygon class="cls-2" points="493.89 460.75 497.42 467.1 500.95 473.44 504.76 467.26 508.56 461.07 501.23 460.92 493.89 460.75"/><polygon class="cls-24" points="575.51 625.81 579.04 632.16 582.57 638.5 586.38 632.31 590.18 626.12 582.85 625.97 575.51 625.81"/><polygon class="cls-25" points="569.32 395.83 573.13 389.64 565.8 389.49 558.46 389.33 561.99 395.67 565.52 402.02 569.32 395.83"/><path class="cls-26" d="M567.38,477.61v17.61L582.85,504l15.46-8.81V477.61l-15.46-8.81Zm29.9,17-14.43,8.22-14.44-8.22V478.2L582.85,470l14.43,8.22Z"/><path class="cls-27" d="M404.23,181.33l-.26.15V210.7l25.65,14.61L455,210.84l.26-.14V181.48l-25.65-14.61Zm50,28.78-24.62,14-24.62-14v-28l24.62-14,24.62,14Z"/><polygon class="cls-28" points="516.97 42.55 516.97 31.89 507.62 26.57 498.27 31.89 498.27 42.55 507.62 47.87 516.97 42.55"/><polygon class="cls-29" points="434.67 268.11 434.67 274.81 440.55 278.16 446.43 274.81 446.43 268.11 440.55 264.76 434.67 268.11"/><polygon class="cls-30" points="237.09 132.54 237.09 141.72 245.14 146.3 253.19 141.72 253.19 132.54 245.14 127.96 237.09 132.54"/><path class="cls-31" d="M525.78,227.44l16.49,9.39,16.49-9.39V208.65l-16.49-9.39-16.49,9.39Zm1-18.2,15.46-8.8,15.46,8.8v17.61l-15.46,8.8-15.46-8.8Z"/><path class="cls-32" d="M499.94,260V376.18a4.05,4.05,0,0,0-2.86,3.87,4.15,4.15,0,1,0,5.43-3.87V260Z"/><polygon class="cls-2" points="129.68 87.7 135.32 90.92 140.97 94.13 140.97 87.7 140.97 81.27 135.32 84.48 129.68 87.7"/><path class="cls-33" d="M555.24,251.71l99,97.66a4,4,0,0,0-.64,2.17,4.15,4.15,0,1,0,4.15-4.1,4.24,4.24,0,0,0-1.52.29l-74.81-73.79h25.9l19,18.74,1.82-1.8L608.39,271.4H578.84l-21.77-21.48Z"/><polygon class="cls-34" points="453.26 74.78 453.41 67.54 446.98 71.03 440.55 74.51 446.82 78.27 453.1 82.01 453.26 74.78"/><polygon class="cls-35" points="470.8 74.78 470.96 67.54 464.52 71.03 458.1 74.51 464.37 78.26 470.64 82.01 470.8 74.78"/><polygon class="cls-36" points="597.46 15.47 593.96 9.08 590.45 2.69 586.68 8.92 582.9 15.16 590.18 15.31 597.46 15.47"/><polygon class="cls-37" points="597.46 32.9 593.96 26.51 590.46 20.12 586.68 26.35 582.9 32.58 590.18 32.74 597.46 32.9"/><path class="cls-38" d="M.13,89a6.23,6.23,0,0,0,6.12,4.9A6.24,6.24,0,0,0,12.38,89H84.17l-7.65,7.55H39.09a4.08,4.08,0,1,0,0,2.54h38.5L87.82,89h26.26L149,108.84V66.55L114.07,86.43H12.38a6.24,6.24,0,0,0-6.13-4.9,6.23,6.23,0,0,0-6.12,4.9H0V89ZM146.4,71v33.5L117,87.7Z"/><polygon class="cls-39" points="213.83 71.97 215.83 70.37 194.07 43.92 114.78 43.93 114.78 46.47 192.84 46.47 213.83 71.97"/><path class="cls-40" d="M606.66,200.08a13.78,13.78,0,1,0,0,2.54h69.68a4.11,4.11,0,1,0-.05-2.54Zm-13.91,12.51a11.25,11.25,0,1,1,11.4-11.24A11.33,11.33,0,0,1,592.75,212.59Z"/><polygon class="cls-41" points="515.07 327.42 515.07 338.07 524.42 343.39 533.77 338.07 533.77 327.42 524.42 322.1 515.07 327.42"/><polygon class="cls-2" points="227.09 58.87 236.44 53.54 236.43 42.89 227.09 37.57 217.74 42.9 217.74 53.54 227.09 58.87"/><path class="cls-42" d="M318,154.74V105.88l-42.89,24.43Zm-2.57-24.42v20l-35.17-20,35.17-20Z"/><path class="cls-43" d="M501.23,428.8l21.43-36.63H479.79Zm0-5.08-17-29h34Z"/><path class="cls-2" d="M252.45,80.16a10.05,10.05,0,1,1,10.05,9.92A10,10,0,0,1,252.45,80.16Z"/><path class="cls-2" d="M524.73,113a17.54,17.54,0,1,1,17.54,17.31A17.42,17.42,0,0,1,524.73,113Z"/><polygon class="cls-2" points="575.51 482.24 582.85 478.06 590.18 482.24 590.18 490.59 582.85 494.77 575.51 490.59 575.51 482.24"/><polygon class="cls-2" points="414.93 187.72 429.62 179.36 444.31 187.72 444.31 204.46 429.62 212.82 414.93 204.46 414.93 187.72"/><polygon class="cls-2" points="535.07 213.95 542.27 209.85 549.47 213.95 549.47 222.15 542.27 226.24 535.08 222.15 535.07 213.95"/><polygon class="cls-2" points="295.55 130.31 302.17 126.54 308.79 122.77 308.79 130.31 308.79 137.86 302.17 134.08 295.55 130.31"/><polygon class="cls-2" points="501.23 411.21 497.97 405.64 494.71 400.07 501.23 400.07 507.74 400.07 504.48 405.64 501.23 411.21"/></g></g></svg>