<?xml version="1.0" standalone="no"?>
<!DOCTYPE svg PUBLIC "-//W3C//DTD SVG 20010904//EN"
 "http://www.w3.org/TR/2001/REC-SVG-20010904/DTD/svg10.dtd">
<svg version="1.0" xmlns="http://www.w3.org/2000/svg"
 width="3000.000000pt" height="2000.000000pt" viewBox="0 0 3000.000000 2000.000000"
 preserveAspectRatio="xMidYMid meet">

<g transform="translate(0.000000,2000.000000) scale(0.100000,-0.100000)"
fill="#000000" stroke="none">
<path d="M15382 18477 c-1117 -1118 -1522 -1528 -1522 -1545 0 -28 34 -62 62
-62 17 0 438 415 1588 1565 l1565 1565 -85 0 -85 0 -1523 -1523z"/>
<path d="M8284 15758 c-331 -332 -605 -612 -608 -624 -9 -30 23 -66 58 -66 24
0 119 90 632 603 438 438 604 610 604 627 0 28 -34 62 -62 62 -17 0 -188 -165
-624 -602z"/>
<path d="M15855 16264 c-289 -64 -518 -300 -582 -597 -18 -87 -12 -262 12
-352 64 -236 252 -435 488 -516 248 -86 520 -39 729 125 118 93 219 250 259
403 27 103 29 269 4 368 -67 269 -282 491 -540 561 -86 23 -282 27 -370 8z"/>
<path d="M2138 16260 c-218 -37 -377 -263 -340 -481 44 -254 280 -408 527
-343 122 31 215 110 271 227 58 123 55 256 -7 379 -54 106 -183 198 -304 218
-67 11 -80 11 -147 0z"/>
<path d="M485 14680 c-11 -4 -31 -20 -45 -35 -20 -22 -25 -37 -25 -81 0 -47 4
-57 33 -86 28 -29 39 -33 85 -33 83 0 127 44 127 127 0 34 -6 47 -39 79 -32
32 -45 39 -77 38 -22 0 -48 -4 -59 -9z"/>
<path d="M1109 14667 c-48 -32 -68 -91 -48 -143 50 -130 237 -99 239 39 1 105
-105 162 -191 104z"/>
<path d="M1785 14680 c-11 -4 -31 -20 -45 -35 -20 -21 -25 -37 -25 -80 0 -46
4 -58 29 -84 80 -84 216 -28 216 88 0 37 -6 49 -39 82 -32 32 -45 39 -77 38
-22 0 -48 -4 -59 -9z"/>
<path d="M2424 14680 c-12 -4 -31 -20 -42 -35 -85 -108 37 -253 158 -190 80
41 78 177 -2 221 -26 15 -83 17 -114 4z"/>
<path d="M452 13996 c-34 -32 -37 -39 -37 -90 0 -49 4 -59 33 -88 29 -29 39
-33 88 -33 51 0 58 3 90 37 27 30 34 46 34 79 0 77 -52 129 -129 129 -33 0
-49 -7 -79 -34z"/>
<path d="M1109 14007 c-48 -32 -68 -91 -48 -143 37 -98 178 -113 224 -24 20
38 19 104 -1 136 -37 56 -117 70 -175 31z"/>
<path d="M1754 13997 c-29 -26 -37 -42 -40 -77 -6 -55 9 -86 56 -118 78 -53
190 5 190 100 0 113 -124 170 -206 95z"/>
<path d="M2413 14010 c-34 -21 -63 -66 -63 -100 0 -92 110 -160 188 -116 57
31 81 128 46 182 -36 54 -113 69 -171 34z"/>
<path d="M19764 13490 c-39 -16 -74 -68 -74 -112 0 -115 132 -171 213 -90 34
34 46 102 25 142 -29 55 -107 83 -164 60z"/>
<path d="M20405 13490 c-11 -4 -31 -20 -45 -35 -20 -22 -25 -37 -25 -82 0 -50
3 -57 37 -89 30 -27 46 -34 79 -34 77 0 129 52 129 130 0 36 -6 48 -39 81 -32
32 -45 39 -77 38 -22 0 -48 -4 -59 -9z"/>
<path d="M26023 12925 c-137 -42 -226 -155 -227 -290 -1 -94 20 -149 81 -215
85 -92 188 -125 302 -96 116 30 196 108 226 223 61 230 -159 448 -382 378z"/>
<path d="M19770 12832 c-54 -24 -80 -62 -80 -117 0 -93 98 -154 180 -112 34
17 70 74 70 111 0 82 -98 150 -170 118z"/>
<path d="M20405 12830 c-11 -4 -31 -20 -45 -35 -20 -22 -25 -37 -25 -81 0 -47
4 -58 31 -85 44 -44 110 -51 158 -18 41 27 56 56 56 104 0 47 -15 76 -54 103
-33 22 -84 28 -121 12z"/>
<path d="M8325 12255 c-47 -25 -65 -54 -65 -108 0 -46 3 -52 59 -110 l59 -62
-59 -63 c-55 -59 -59 -65 -59 -111 0 -112 120 -161 200 -83 15 15 42 40 59 57
l31 29 53 -51 c59 -58 85 -73 122 -73 64 0 115 53 115 120 0 35 -7 49 -47 93
-27 28 -55 57 -63 64 -13 10 -8 19 31 60 63 66 79 92 79 131 0 60 -29 95 -93
116 -37 12 -81 -8 -141 -65 l-61 -58 -60 59 c-68 67 -110 81 -160 55z"/>
<path d="M15127 2613 l-2607 -2608 82 -3 82 -3 2568 2568 c2353 2353 2568
2571 2568 2600 0 35 -21 53 -62 53 -17 0 -665 -642 -2631 -2607z"/>
<path d="M9205 4117 c-129 -51 -205 -157 -205 -289 0 -100 28 -164 100 -231
47 -44 70 -58 124 -72 152 -41 303 30 369 174 30 65 30 187 0 252 -28 61 -92
125 -156 155 -41 19 -68 24 -127 23 -41 0 -88 -6 -105 -12z"/>
<path d="M24898 3664 c-36 -19 -58 -63 -58 -114 0 -52 48 -108 100 -116 49 -8
105 17 130 58 50 79 -10 188 -102 188 -24 -1 -55 -7 -70 -16z"/>
<path d="M25538 3664 c-106 -57 -53 -234 70 -234 35 0 92 37 109 70 29 57 5
137 -49 166 -31 18 -97 17 -130 -2z"/>
<path d="M26198 3664 c-36 -19 -58 -63 -58 -114 0 -32 7 -48 33 -76 79 -87
217 -30 217 90 0 31 -7 45 -39 77 -33 34 -45 39 -82 39 -24 -1 -56 -7 -71 -16z"/>
<path d="M26836 3661 c-38 -25 -55 -57 -56 -101 0 -68 61 -130 128 -130 35 0
92 37 109 70 29 57 5 137 -49 166 -34 20 -99 17 -132 -5z"/>
<path d="M27481 3654 c-106 -89 -9 -258 123 -214 92 30 112 150 35 215 -43 35
-115 35 -158 -1z"/>
<path d="M28138 3664 c-36 -19 -58 -63 -58 -114 0 -90 110 -149 187 -101 74
46 83 140 19 198 -29 27 -44 33 -78 33 -24 -1 -55 -7 -70 -16z"/>
<path d="M28804 3670 c-38 -15 -64 -59 -64 -107 0 -59 21 -97 66 -118 66 -31
143 -3 171 62 20 50 9 99 -32 140 -28 28 -40 33 -76 32 -24 0 -54 -4 -65 -9z"/>
<path d="M29438 3664 c-36 -19 -58 -63 -58 -114 0 -90 110 -149 187 -101 74
46 83 140 19 198 -29 27 -44 33 -78 33 -24 -1 -55 -7 -70 -16z"/>
<path d="M23455 3651 c-64 -40 -95 -92 -95 -161 0 -62 15 -88 107 -182 l87
-88 -86 -88 c-92 -92 -108 -119 -108 -182 0 -75 35 -129 105 -161 88 -41 149
-19 263 94 l82 82 83 -82 c84 -84 132 -113 187 -113 36 0 96 23 123 48 49 44
70 135 47 198 -6 15 -50 67 -97 116 l-87 88 82 83 c84 85 112 132 112 191 0
66 -40 130 -102 162 -32 17 -105 18 -145 3 -15 -5 -67 -49 -115 -97 l-88 -87
-87 87 c-49 47 -98 91 -110 97 -35 18 -124 13 -158 -8z"/>
<path d="M24898 3004 c-36 -19 -58 -63 -58 -115 0 -33 6 -47 33 -74 43 -43 79
-52 130 -34 56 20 82 58 82 121 0 45 -4 53 -37 84 -31 28 -45 34 -80 34 -24
-1 -55 -7 -70 -16z"/>
<path d="M25542 3006 c-91 -50 -76 -190 24 -225 49 -17 84 -10 125 27 59 53
48 162 -21 197 -35 18 -97 19 -128 1z"/>
<path d="M26198 3004 c-36 -19 -58 -63 -58 -115 0 -33 6 -47 33 -74 43 -43 79
-52 131 -34 133 46 100 240 -41 239 -21 -1 -50 -7 -65 -16z"/>
<path d="M26838 3004 c-88 -47 -70 -189 28 -223 49 -17 84 -10 125 27 59 53
48 162 -21 197 -37 19 -97 19 -132 -1z"/>
<path d="M27481 2994 c-112 -94 10 -277 138 -206 78 42 90 135 26 199 -29 29
-40 33 -83 33 -40 0 -57 -6 -81 -26z"/>
<path d="M28128 2997 c-35 -30 -48 -58 -48 -107 0 -34 6 -48 33 -75 63 -63
152 -55 198 17 36 58 11 150 -49 177 -40 19 -104 13 -134 -12z"/>
<path d="M28804 3010 c-38 -15 -64 -59 -64 -107 0 -112 109 -168 200 -103 91
65 39 221 -73 219 -23 0 -52 -4 -63 -9z"/>
<path d="M29438 3004 c-36 -19 -58 -63 -58 -113 0 -31 7 -49 30 -75 97 -110
268 5 205 138 -29 60 -114 85 -177 50z"/>
<path d="M16163 2358 c-483 -483 -583 -587 -583 -610 0 -29 31 -58 64 -58 13
0 224 206 598 583 615 620 610 613 556 651 -12 9 -29 16 -38 16 -8 0 -277
-262 -597 -582z"/>
<path d="M1045 1040 l-1040 -1040 85 0 85 0 998 998 c1052 1052 1025 1023 981
1066 -43 44 -11 74 -1109 -1024z"/>
</g>
</svg>
